<?xml version="1.0" encoding="utf-8"?>
<!-- Generator: Adobe Illustrator 22.1.0, SVG Export Plug-In . SVG Version: 6.00 Build 0)  -->
<svg version="1.1" id="Layer_2" xmlns="http://www.w3.org/2000/svg" xmlns:xlink="http://www.w3.org/1999/xlink" x="0px" y="0px"
	 viewBox="0 0 250 250" style="enable-background:new 0 0 250 250;" xml:space="preserve">
<style type="text/css">
	.st0{fill:#FFFFFF;}
</style>
<g>
	<path class="st0" d="M178.2,82.3c-9.8-4.5-20.6-6.9-31.5-6.9h-7.6c-0.6,18-3.9,69.8-21.9,97.6c-19.4,30,33.3-22.5,38-56.7
		c0.9-6.7,6.8-13.9,13.2-16c8.9-2.1,9.4-11.9,9.7-18.4C178.2,82,178.2,82.1,178.2,82.3z"/>
	<g>
		<path class="st0" d="M194.3,211H78.6c-12.5,0-23.7-7.4-28.7-18.8L7.3,95.1C3.7,86.9,4.5,77.5,9.4,70c4.9-7.5,13.2-12,22.1-12
			h115.6c15.9,0,31.6,4.2,45.4,12.1c28.2,16.2,45.8,46.5,45.8,79.1v17.7C238.3,191.2,218.6,211,194.3,211z M22,88.6l42.6,97.2
			c2.4,5.6,8,9.2,14.1,9.2h115.6c15.5,0,28.1-12.6,28.1-28.1v-17.7c0-26.9-14.5-51.8-37.8-65.2c-11.4-6.5-24.3-10-37.4-10H31.6
			c-3.6,0-6.8,1.7-8.7,4.7S20.5,85.4,22,88.6L22,88.6z"/>
	</g>
</g>
</svg>
