<svg xmlns="http://www.w3.org/2000/svg" viewBox="0 0 180.98 47"><title>icon</title><g id="Layer_2" data-name="Layer 2"><g id="Layer_1-2" data-name="Layer 1"><path d="M58.91,10A6.52,6.52,0,0,0,65,5,3.93,3.93,0,0,0,61,0H14A6.51,6.51,0,0,0,8,5L4.05,23.5A3.92,3.92,0,0,0,8,28.5H50L48.18,37h-42A6.52,6.52,0,0,0,.11,42a3.93,3.93,0,0,0,3.94,5h47a6.51,6.51,0,0,0,6.06-5l3.94-18.5a3.93,3.93,0,0,0-3.94-5h-42l1.8-8.5Z"/><path d="M113.18,0a6.52,6.52,0,0,0-6.06,5l-6.8,32H74.93l6.8-32a3.93,3.93,0,0,0-3.94-5,6.51,6.51,0,0,0-6.06,5L63.86,42a3.93,3.93,0,0,0,3.94,5h35.39a6.52,6.52,0,0,0,6.07-5l7.86-37A3.92,3.92,0,0,0,113.18,0Z"/><path d="M176.93,0h-47a6.52,6.52,0,0,0-6.06,5L116,42a3.92,3.92,0,0,0,3.93,5A6.52,6.52,0,0,0,126,42l2.87-13.5h42a6.52,6.52,0,0,0,6.06-5L180.87,5A3.92,3.92,0,0,0,176.93,0ZM132.81,10h37L168,18.5H131Z"/></g></g></svg>